<svg width="33" height="31" viewBox="0 0 33 31" fill="none" xmlns="http://www.w3.org/2000/svg">
<path d="M32.9062 6.74996V7.84371C32.9062 7.98875 32.8486 8.12785 32.7461 8.23041C32.6435 8.33297 32.5044 8.39058 32.3594 8.39058H30.7188V9.2109C30.7188 9.66391 30.3515 10.0312 29.8984 10.0312H3.10156C2.64855 10.0312 2.28125 9.66391 2.28125 9.2109V8.39058H0.640625C0.495585 8.39058 0.356485 8.33297 0.253926 8.23041C0.151367 8.12785 0.09375 7.98875 0.09375 7.84371V6.74996C0.0937508 6.64177 0.125843 6.536 0.185967 6.44606C0.246091 6.35611 0.331543 6.28601 0.431514 6.24464L16.2909 0.22902C16.4248 0.173579 16.5752 0.173579 16.7091 0.22902L32.5685 6.24464C32.6685 6.28601 32.7539 6.35611 32.814 6.44606C32.8742 6.536 32.9062 6.64177 32.9062 6.74996ZM31.2656 27.5312H1.73438C0.828271 27.5312 0.09375 28.2657 0.09375 29.1718V30.2656C0.09375 30.4106 0.151367 30.5497 0.253926 30.6523C0.356485 30.7548 0.495585 30.8125 0.640625 30.8125H32.3594C32.5044 30.8125 32.6435 30.7548 32.7461 30.6523C32.8486 30.5497 32.9062 30.4106 32.9062 30.2656V29.1718C32.9062 28.2657 32.1717 27.5312 31.2656 27.5312ZM5.5625 11.125V24.25H3.10156C2.64855 24.25 2.28125 24.6173 2.28125 25.0703V26.4375H30.7188V25.0703C30.7188 24.6173 30.3515 24.25 29.8984 24.25H27.4375V11.125H23.0625V24.25H18.6875V11.125H14.3125V24.25H9.9375V11.125H5.5625Z" fill="white"/>
</svg>
